# xmcd
#
# Track frame offsets:
#	150
#	22673
#	41080
#	61388
#	82555
#	101663
#	123700
#	143238
#
# Disc length: 2178 seconds
#
# Revision: 0
# Processed by: cddbd v1.5.2PL0 Copyright (c) Steve Scherf et al.
# Submitted via: EasyCDDAExtractor 12.0.1.1
#
DISCID=5f088008
DTITLE=Mayra Y Celines - Y Su Grupo Flor De Caña
DYEAR=1991
DGENRE=Latin
TTITLE0=Todo El Que Me Ve
TTITLE1=Mentira
TTITLE2=Mi Chico
TTITLE3=Tanto Amor
TTITLE4=Cariñito De Mi Amor
TTITLE5=No Me Has Dejado De Amar
TTITLE6=Cielo De Luna
TTITLE7=Muy Dentro De Mi
EXTD=
EXTT0=
EXTT1=
EXTT2=
EXTT3=
EXTT4=
EXTT5=
EXTT6=
EXTT7=
PLAYORDER=
